<svg width="0" height="0" class="hidden">
  <symbol fill="none" xmlns="http://www.w3.org/2000/svg" viewBox="0 0 20 20" id="icon-lock">
    <path d="M15.8333 9.16669H4.16667C3.24619 9.16669 2.5 9.91288 2.5 10.8334V16.6667C2.5 17.5872 3.24619 18.3334 4.16667 18.3334H15.8333C16.7538 18.3334 17.5 17.5872 17.5 16.6667V10.8334C17.5 9.91288 16.7538 9.16669 15.8333 9.16669Z" stroke="var(--clr-icon)" stroke-width="2" stroke-linecap="round" stroke-linejoin="round"></path>
    <path d="M5.83337 9.16669V5.83335C5.83337 4.72828 6.27236 3.66848 7.05376 2.88708C7.83516 2.10567 8.89497 1.66669 10 1.66669C11.1051 1.66669 12.1649 2.10567 12.9463 2.88708C13.7277 3.66848 14.1667 4.72828 14.1667 5.83335V9.16669" stroke="var(--clr-icon)" stroke-width="2" stroke-linecap="round" stroke-linejoin="round"></path>
  </symbol>
	
  <symbol fill="none" xmlns="http://www.w3.org/2000/svg" viewBox="0 0 20 20" id="icon-mail">
    <path d="M3.33329 3.33331H16.6666C17.5833 3.33331 18.3333 4.08331 18.3333 4.99998V15C18.3333 15.9166 17.5833 16.6666 16.6666 16.6666H3.33329C2.41663 16.6666 1.66663 15.9166 1.66663 15V4.99998C1.66663 4.08331 2.41663 3.33331 3.33329 3.33331Z" stroke="var(--clr-icon)" stroke-width="2" stroke-linecap="round" stroke-linejoin="round"></path>
    <path d="M18.3333 5L9.99996 10.8333L1.66663 5" stroke="var(--clr-icon)" stroke-width="2" stroke-linecap="round" stroke-linejoin="round"></path>
  </symbol>
	
  <symbol fill="none" xmlns="http://www.w3.org/2000/svg" viewBox="0 0 20 20" id="icon-eye">
    <g clip-path="url(#clip0_222_89)">
      <path d="M0.833374 9.99998C0.833374 9.99998 4.16671 3.33331 10 3.33331C15.8334 3.33331 19.1667 9.99998 19.1667 9.99998C19.1667 9.99998 15.8334 16.6666 10 16.6666C4.16671 16.6666 0.833374 9.99998 0.833374 9.99998Z" stroke="var(--clr-icon)" stroke-width="2" stroke-linecap="round" stroke-linejoin="round"></path>
      <path d="M10 12.5C11.3807 12.5 12.5 11.3807 12.5 10C12.5 8.61929 11.3807 7.5 10 7.5C8.61929 7.5 7.5 8.61929 7.5 10C7.5 11.3807 8.61929 12.5 10 12.5Z" stroke="var(--clr-icon)" stroke-width="2" stroke-linecap="round" stroke-linejoin="round"></path>
    </g>
    <defs>
      <clipPath id="clip0_222_89">
        <rect width="20" height="20" fill="white"></rect>
      </clipPath>
    </defs>
  </symbol>
</svg>